<?xml version="1.0" encoding="UTF-8" standalone="no"?>
<!DOCTYPE svg PUBLIC "-//W3C//DTD SVG 1.1//EN" "http://www.w3.org/Graphics/SVG/1.1/DTD/svg11.dtd">
<svg width="100%" height="100%" viewBox="0 0 20 20" version="1.1" xmlns="http://www.w3.org/2000/svg" xmlns:xlink="http://www.w3.org/1999/xlink" xml:space="preserve" xmlns:serif="http://www.serif.com/" style="fill-rule:evenodd;clip-rule:evenodd;stroke-linejoin:round;stroke-miterlimit:2;">
    <g transform="matrix(0.0252365,0,-0.000365455,0.0252365,2.0822,3.53946)">
        <path d="M128,352L32,352C14.33,352 0,366.33 0,384L0,480C0,497.67 14.33,512 32,512L128,512C145.67,512 160,497.67 160,480L160,384C160,366.33 145.67,352 128,352ZM104,272L296,272L296,320L344,320L344,272L536,272L536,320L584,320L584,262.41C584,241.24 566.77,224 545.59,224L344,224L344,160L384,160C401.67,160 416,145.67 416,128L416,32C416,14.33 401.67,0 384,0L256,0C238.33,0 224,14.33 224,32L224,128C224,145.67 238.33,160 256,160L296,160L296,224L94.41,224C73.23,224 56,241.23 56,262.41L56,320L104,320L104,272ZM368,352L272,352C254.33,352 240,366.33 240,384L240,480C240,497.67 254.33,512 272,512L368,512C385.67,512 400,497.67 400,480L400,384C400,366.33 385.67,352 368,352ZM608,352L512,352C494.33,352 480,366.33 480,384L480,480C480,497.67 494.33,512 512,512L608,512C625.67,512 640,497.67 640,480L640,384C640,366.33 625.67,352 608,352Z" style="fill-rule:nonzero;"/>
    </g>
</svg>
