<svg width="20" height="20" viewBox="0 0 20 20" xmlns="http://www.w3.org/2000/svg"><g fill="#000" fill-rule="evenodd"><path d="M16.074,19.311l-0.571,0l0,-5.105l0.77,0l0.854,2.326l0.85,-2.326l0.771,0l0,5.105l-0.572,0l0,-4.378l-0.77,2.095l-0.561,0l-0.771,-2.095l0,4.378Zm-4.997,-4.311l0.991,-1.416c0.14,-0.2 0.37,-0.32 0.615,-0.32c0.411,0 0.75,0.339 0.75,0.75c0,0.154 -0.048,0.304 -0.136,0.43l-1.148,1.64c-0.058,0.083 -0.132,0.153 -0.217,0.206c-0.99,1.036 -2.362,1.622 -3.795,1.622c-2.881,0 -5.251,-2.37 -5.251,-5.251c0,-0.807 0.186,-1.603 0.543,-2.326c0.02,-0.095 0.06,-0.189 0.12,-0.274l1.147,-1.639c0.138,-0.212 0.375,-0.34 0.628,-0.34c0.412,0 0.75,0.338 0.75,0.75c0,0.162 -0.053,0.32 -0.15,0.45l-0.991,1.418l0.006,0.003c-0.361,0.59 -0.553,1.268 -0.553,1.959c0,2.057 1.693,3.75 3.75,3.75c1.142,0 2.224,-0.521 2.935,-1.415l0.006,0.004l0,-0.001Zm0.931,-7.867c0.2,0.14 0.32,0.37 0.32,0.614c0,0.154 -0.048,0.305 -0.136,0.431l-3.155,4.505c-0.14,0.2 -0.37,0.32 -0.615,0.32c-0.411,0 -0.75,-0.339 -0.75,-0.75c0,-0.154 0.048,-0.304 0.136,-0.43l3.155,-4.506c0.14,-0.2 0.37,-0.32 0.614,-0.32c0.154,0 0.305,0.048 0.431,0.136Zm4.563,2.532c-0.021,0.098 -0.062,0.192 -0.12,0.274l-1.147,1.639c-0.138,0.212 -0.375,0.34 -0.628,0.34c-0.412,0 -0.75,-0.338 -0.75,-0.75c0,-0.162 0.053,-0.32 0.15,-0.45l0.86,-1.23c0.432,-0.626 0.663,-1.369 0.663,-2.129c0,-2.058 -1.693,-3.75 -3.75,-3.75c-1.213,0 -2.354,0.589 -3.057,1.578l-0.86,1.229c-0.14,0.2 -0.37,0.32 -0.614,0.32c-0.412,0 -0.751,-0.339 -0.751,-0.75c0,-0.154 0.048,-0.304 0.136,-0.43l1.148,-1.64c0.058,-0.083 0.132,-0.153 0.217,-0.206c0.99,-1.036 2.362,-1.622 3.795,-1.622c2.881,0 5.251,2.37 5.251,5.251c0,0.807 -0.186,1.603 -0.543,2.326Z"/></g></svg>