<?xml version="1.0" encoding="UTF-8" standalone="no"?>
<!DOCTYPE svg PUBLIC "-//W3C//DTD SVG 1.1//EN" "http://www.w3.org/Graphics/SVG/1.1/DTD/svg11.dtd">
<svg width="100%" height="100%" viewBox="0 0 20 20" version="1.1" xmlns="http://www.w3.org/2000/svg" xmlns:xlink="http://www.w3.org/1999/xlink" xml:space="preserve" xmlns:serif="http://www.serif.com/" style="fill-rule:evenodd;clip-rule:evenodd;stroke-linejoin:round;stroke-miterlimit:2;">
    <g transform="matrix(0.0242791,0,0,0.0242791,2.2307,3.78456)">
        <path d="M608,0L160,0C142.445,0 128,14.445 128,32L128,128L288,128L288,64L480,64L480,384L608,384C625.555,384 640,369.555 640,352L640,32C640,14.445 625.555,0 608,0ZM232,103C232,107.937 227.937,112 223,112L193,112C188.063,112 184,107.937 184,103L184,73C184,68.063 188.063,64 193,64L223,64C227.937,64 232,68.063 232,73L232,103ZM584,311C584,315.937 579.937,320 575,320L545,320C540.063,320 536,315.937 536,311L536,281C536,276.063 540.063,272 545,272L575,272C579.937,272 584,276.063 584,281L584,311ZM584,207C584,211.937 579.937,216 575,216L545,216C540.063,216 536,211.937 536,207L536,177C536,172.063 540.063,168 545,168L575,168C579.937,168 584,172.063 584,177L584,207ZM584,103C584,107.937 579.937,112 575,112L545,112C540.063,112 536,107.937 536,103L536,73C536,68.063 540.063,64 545,64L575,64C579.937,64 584,68.063 584,73L584,103ZM416,160L32,160C14.445,160 0,174.445 0,192L0,480C0,497.555 14.445,512 32,512L416,512C433.555,512 448,497.555 448,480L448,192C448,174.445 433.555,160 416,160ZM96,224C113.555,224 128,238.445 128,256C128,273.555 113.555,288 96,288C78.445,288 64,273.555 64,256C64,238.445 78.445,224 96,224ZM384,448L64,448L64,416L128,352L160,384L288,256L384,352L384,448Z" style="fill-rule:nonzero;"/>
    </g>
</svg>
