<?xml version="1.0" encoding="UTF-8" standalone="no"?>
<!DOCTYPE svg PUBLIC "-//W3C//DTD SVG 1.1//EN" "http://www.w3.org/Graphics/SVG/1.1/DTD/svg11.dtd">
<svg width="100%" height="100%" viewBox="0 0 20 20" version="1.1" xmlns="http://www.w3.org/2000/svg" xmlns:xlink="http://www.w3.org/1999/xlink" xml:space="preserve" xmlns:serif="http://www.serif.com/" style="fill-rule:evenodd;clip-rule:evenodd;stroke-linejoin:round;stroke-miterlimit:2;">
    <g>
        <path d="M7.739,17.897C5.041,17.69 2.886,15.408 2.886,12.661C2.886,11.854 3.072,11.058 3.429,10.335C3.449,10.24 3.489,10.146 3.549,10.061L4.696,8.422C4.834,8.21 5.071,8.082 5.324,8.082C5.736,8.082 6.074,8.42 6.074,8.832C6.074,8.994 6.021,9.152 5.924,9.282L4.933,10.7L4.939,10.703C4.578,11.293 4.386,11.971 4.386,12.662C4.386,14.633 5.941,16.27 7.88,16.403L7.739,17.897ZM8.393,10.987L8.205,12.971C7.898,12.877 7.672,12.589 7.672,12.253C7.672,12.099 7.72,11.949 7.808,11.823L8.393,10.987ZM15.51,8.169C15.569,7.905 15.599,7.633 15.599,7.359C15.599,5.301 13.906,3.609 11.849,3.609C10.636,3.609 9.495,4.198 8.792,5.187L7.932,6.416C7.792,6.616 7.562,6.736 7.318,6.736C6.906,6.736 6.567,6.397 6.567,5.986C6.567,5.832 6.615,5.682 6.703,5.556L7.851,3.916C7.909,3.833 7.983,3.763 8.068,3.71C9.058,2.674 10.43,2.088 11.863,2.088C14.744,2.088 17.114,4.458 17.114,7.339C17.114,7.815 17.049,8.287 16.923,8.742C16.513,8.475 16.04,8.276 15.51,8.169ZM10.426,8.084L10.963,7.317C11.103,7.117 11.333,6.997 11.577,6.997C11.731,6.997 11.882,7.045 12.008,7.133C12.208,7.273 12.328,7.503 12.328,7.747C12.328,7.864 12.3,7.979 12.248,8.083L10.426,8.084Z"/>
        <g transform="matrix(0.120673,0,0,0.120673,8.66782,8.90146)">
            <path d="M23.762,34.529L46.456,34.529C52.171,34.529 56.153,31.677 56.153,26.962C56.153,23.388 53.393,19.978 48.412,19.978C44.553,19.978 33.698,19.919 25.239,19.876L23.762,34.529ZM60.487,50.99L72.037,77.033L50.837,77.033L40.582,53.908L21.809,53.908L19.477,77.033L0,77.033L7.693,0.592L47.928,0.575C66.008,0.575 76.695,14.604 75.589,27.167C74.716,37.07 71.085,45.207 60.487,50.99Z" style="fill:rgb(75,154,217);fill-rule:nonzero;"/>
        </g>
    </g>
</svg>
